<?xml version="1.0" encoding="UTF-8"?>
<svg width="1546px" height="214px" viewBox="0 0 1546 214" version="1.1" xmlns="http://www.w3.org/2000/svg" xmlns:xlink="http://www.w3.org/1999/xlink">
    <!-- Generator: Sketch 64 (93537) - https://sketch.com -->
    <title>Group</title>
    <desc>Created with Sketch.</desc>
    <g id="Page-1" stroke="none" stroke-width="1" fill="none" fill-rule="evenodd">
        <g id="Group" fill="#202020" fill-rule="nonzero">
            <path d="M42.8971256,107 C58.9253656,148.530212 76.9425113,192.79804 81.0958144,193.788242 C81.3298033,193.846489 81.6222895,193.788242 81.7977811,193.6135 C99.1714574,177.886772 117.481089,179.34295 129.70701,183.362003 C140.002521,186.740338 147.899647,192.448557 151,194.894937 L151,194.894937 L149.713061,194.42896 C121.107917,184.23571 96.3635905,175.382145 78.0539586,214 C75.1875946,211.202972 55.804094,164.324787 36.200365,115.523365 L35,112.533478 C37.1059002,111.48503 38.7438225,110.145346 40.3232476,108.922156 C41.200706,108.22319 42.0196672,107.582471 42.8971256,107 Z M304.769585,111 C306.754224,112.696101 309.089094,114.333716 312.357911,115.211009 C312.591398,115.269495 312.766513,115.327982 313,115.444954 C293.562212,163.930046 274.591398,210.251147 271.731183,213 C253.654624,174.597936 226.832671,183.547336 200.714835,193.113485 L199.116743,193.699541 L199,193.758028 C202.093702,191.301606 209.973886,185.62844 220.18894,182.236239 C232.447005,178.200688 250.658986,176.738532 267.995392,192.588303 C268.170507,192.763761 268.403994,192.822248 268.695853,192.763761 C272.665131,191.769495 289.301075,151.004587 304.769585,111 Z M177.497642,68.1503896 C184.855563,59.6082961 251.427224,-14.7547233 327.809446,2.62200115 C328.318841,3.47261004 324.659037,11.2484839 320.605101,18.5981876 L320.217941,19.2966357 L306.903609,18.9455908 L313.79436,6.83454041 L313.32719,6.77603292 C270.405987,-0.186358354 200.797724,50.0130678 180.475848,65.5760601 L180.475848,65.5760601 L180.826225,66.1026275 C199.746592,53.8745621 267.719762,14.6160365 350,22.9826076 C344.685946,36.6148527 337.152837,55.8638168 328.860578,76.8680056 C325.823976,75.7563633 322.436996,74.7032285 319.341998,73.9426311 C327.342277,52.5873974 333.240292,36.3808227 333.999443,34.3915681 L333.999443,34.3915681 L334.057839,34.2160456 L333.941047,34.0990306 C327.692654,27.0781319 294.582012,31.4076861 265.675896,37.7850025 C229.70384,45.7420211 195.600463,57.443519 178.899151,67.6823297 L178.899151,67.6823297 L177.906416,68.2674046 L179.424717,68.2674046 C179.775094,68.2674046 180.008679,68.6184495 180.008679,69.0865095 L180.008679,69.0865095 L176.212926,193.005373 C176.212926,193.590448 175.920945,194 175.628964,194 L175.628964,194 L174.92821,194 C174.636229,194 174.344248,193.590448 174.344248,193.005373 L174.344248,193.005373 L170.548495,68.9694945 C170.548495,68.4429271 170.78208,68.0918821 171.015665,68.0333747 L171.015665,68.0333747 L171.716419,67.7993447 L171.074061,67.3897923 C170.723684,67.1557623 170.31491,66.9217323 169.906137,66.6877024 L169.906137,66.6877024 L170.256514,66.161135 C155.715862,55.1032194 81.1439219,0.106179095 36.5292295,7.36110782 L36.5292295,7.36110782 L36.06206,7.41961531 L42.9528109,19.4721582 L29.6384786,19.8232031 C25.4923488,12.275737 21.5214076,3.96767342 22.0469734,3.14856856 C98.6627802,-14.2866634 165.059253,59.5497886 172.358777,68.0333747 L172.358777,68.0333747 L172.47557,68.1503896 L173.23472,68.2674046 L173.23472,67.9163597 L176.796888,67.9163597 L176.796888,68.2674046 L177.38085,68.2674046 Z M298.753313,100 C299.916411,100 301.777368,100.570342 304.161719,101.596958 L304.161719,101.596958 L304.336183,101.653992 C308.290716,103.365019 310.616912,105.076046 315.269304,108.38403 C316.083473,108.954373 316.955796,109.581749 317.886275,110.26616 C318.525979,110.722433 318.933063,111.235741 318.991218,111.749049 C319.049373,112.262357 318.816753,112.8327 318.351514,113.403042 C317.421035,114.486692 316.606867,115 315.792698,115 C315.152994,115 314.513291,114.714829 313.931742,114.429658 C313.524657,114.258555 313.059418,114.030418 312.652334,113.91635 C308.581491,112.8327 306.08083,110.608365 303.696479,108.441065 C302.649691,107.471483 301.602903,106.558935 300.439805,105.760456 C300.323495,105.703422 300.26534,105.646388 300.14903,105.589354 C299.334862,105.076046 297.183131,103.65019 297.008666,102.110266 C296.950511,101.48289 297.183131,100.912548 297.76468,100.285171 C297.997299,100.057034 298.404384,100 298.753313,100 Z M45.0202912,99 C45.6687017,99 46.1402731,99.1157025 46.3171123,99.3471074 C46.9065764,99.9834711 47.0834157,100.619835 46.9655228,101.256198 C46.6707908,102.818182 44.3718806,104.090909 43.5466308,104.553719 C43.428738,104.61157 43.3108452,104.669421 43.2518988,104.727273 C42.0140241,105.421488 40.8940422,106.289256 39.7151139,107.214876 C37.1214717,109.239669 34.4099367,111.322314 30.2247413,112.132231 C29.8121164,112.190083 29.3405451,112.363636 28.9279202,112.53719 C28.3384561,112.768595 27.7489919,113 27.1595278,113 L27.1595278,113 L27.091081,112.999004 C26.5501078,112.983026 25.6392015,112.758953 24.5658856,111.206612 C24.0943143,110.570248 23.917475,109.991736 24.0353678,109.528926 C24.1532607,109.008264 24.5658856,108.545455 25.2732425,108.082645 C26.334278,107.446281 27.2184742,106.867769 28.1026704,106.347107 C33.0541692,103.22314 35.5299186,101.661157 39.5972211,100.272727 L39.5972211,100.272727 L39.7740604,100.214876 C40.6582566,99.9256198 43.2518988,99 45.0202912,99 Z M297.483155,90 C298.234072,90 298.927227,90.1155015 299.389331,90.231003 C299.504856,90.231003 299.620382,90.2887538 299.735908,90.2887538 C305.223384,91.212766 315.158604,94.56231 324.111855,99.7021277 C325.498164,100.510638 326.942237,102.416413 327,104.091185 C326.942237,107.49848 324.342906,109 322.552256,109 C322.205679,109 321.859101,108.942249 321.62805,108.826748 C317.757935,107.151976 315.043078,105.361702 312.443748,103.629179 C310.075468,102.012158 307.591663,100.395137 304.299178,98.893617 C304.183652,98.8358663 303.837074,98.7781155 303.432734,98.6048632 C294.826061,95.6595745 293.844092,93.7537994 294.01738,92.887538 C294.421721,90.9240122 295.576979,90 297.483155,90 Z M47.2620185,89 C49.4768584,89 50.7008489,90.0268456 50.9922752,92.1375839 C51.1088457,92.9932886 50.0014257,94.761745 41.083781,97.1006711 C40.6174989,97.2147651 40.3260726,97.2718121 40.2095021,97.3288591 C36.7706717,98.5268456 34.1478351,99.9530201 31.6415689,101.379195 C28.8438764,102.919463 25.9878987,104.516779 22.024501,105.885906 C21.8496452,105.942953 21.6165042,106 21.3250779,106 C20.5090842,106 19.2850938,105.657718 18.2942444,104.630872 C17.6531065,104.003356 16.8953981,102.805369 17.0119687,100.865772 C17.1285392,99.1543624 18.7605264,97.385906 20.2176579,96.7013423 C29.6015848,92.2516779 39.8597905,89.6845638 45.4551755,89.1711409 C45.571746,89.1711409 45.6883165,89.114094 45.804887,89.114094 C46.1545986,89.057047 46.6791659,89 47.2620185,89 Z M295.817501,80 C298.801776,80 302.429718,80.9714286 305.648053,81.9428571 C312.26027,83.8857143 323.261126,88.0571429 329.05413,91.0857143 C330.399979,91.7714286 332.682072,94.1142857 331.804344,96.5714286 C330.926616,98.8571429 329.639282,100 327.883826,100 C326.479461,100 325.250642,99.2 324.899551,98.9714286 L324.899551,98.9714286 L324.606975,98.8 C322.090822,97.0285714 314.483847,91.7142857 302.254172,89.4285714 C296.812259,88.4 290.609649,85.2571429 291.019255,82.9142857 C291.253316,81.6571429 291.955498,80 295.817501,80 Z M48.27899,79 C53.6370412,79 53.9314396,81.4967742 53.9903193,82.3096774 C54.2847177,84.7483871 47.8079525,87.4774194 42.2732622,88.116129 C29.8496489,89.5677419 21.7831322,94.4451613 19.1335465,96.0129032 L19.1335465,96.0129032 L18.8391481,96.1870968 C18.5447496,96.3612903 17.4260356,97 16.0718029,97 C14.187653,97 12.8334203,95.7225806 12.1268641,93.2258065 C11.4203079,90.7870968 13.8343749,88.5225806 15.1886077,87.883871 C21.2532151,85.2129032 32.5581144,81.7870968 39.329278,80.2774194 C42.2143825,79.6387097 45.4527651,79 48.27899,79 Z M306.640199,73 C308.21523,73 309.731927,73.1770833 310.490275,73.2951389 C310.723613,73.2951389 310.840282,73.2951389 310.898616,73.3541667 C315.215367,73.8263889 326.707259,76.6006944 332.599041,79.7881944 C334.057403,80.5555556 335.807437,82.7395833 335.982441,84.4513889 C336.09911,85.6319444 335.632434,86.9305556 334.640748,87.9930556 C333.415724,89.2916667 331.899028,90 330.965676,90 C330.732338,90 330.499,89.9409722 330.382331,89.8229167 C325.307232,86.0451389 316.965402,82.4444444 305.706848,79.1388889 C304.30682,78.7256944 300.573414,77.1909722 301.04009,75.4201389 C301.623434,73.4131944 304.423489,73 306.640199,73 Z M37.8875573,72 C40.8416299,72 44.5046798,72.5231713 44.9773314,74.8483772 C45.3318201,76.6504118 41.4324444,77.8711448 40.0144896,78.1617956 C28.3754438,80.6032617 19.749552,83.5097691 14.3140586,86.8813176 C13.6641626,87.2882286 11.7144748,86.648797 10.29652,84.9630228 C9.70570545,84.265461 8.76040224,82.8703375 9.0558095,81.1845632 C9.2921353,79.498789 11.2418232,77.522364 12.7779409,76.8248022 C18.9224117,74.1508154 30.7977833,72.2325206 35.1698106,72.0581301 L35.1698106,72.0581301 L35.5833808,72.0581301 C36.1151138,72.0581301 36.9422541,72 37.8875573,72 Z M0,23.1637748 C81.9676197,14.8283873 149.497761,53.5703292 169,66.1908102 C151.768171,56.3879249 118.818119,45.2936416 84.1215983,37.7213529 C55.2466414,31.3817625 22.1801585,27.1553688 16.0093007,34.1406583 L16.0093007,34.1406583 L15.8928694,34.2580581 L15.9510851,34.4341579 C16.6496728,36.371255 22.0055115,51.1049329 29.3988977,71.004203 C26.3716845,71.4151024 22.7623148,72.1195013 19.4440234,73 C11.8177747,53.5703292 4.94832931,35.9603556 0,23.1637748 Z M176,67.2 L176,67.8 L174,67.8 L174,67.2 L176,67.2 Z" id="Combined-Shape"></path>
            <path d="M484.294385,160 L482.776935,108.918079 L483.383915,108.918079 L513.125948,160 L550,160 L550,53 L515.705615,53 L517.223065,107.25565 L516.616085,107.25565 L485.963581,53 L450,53 L450,160 L484.294385,160 Z M662,160 L662,130.076271 L619.777778,130.076271 L619.777778,120.101695 L657.02381,120.101695 L657.02381,92.1426554 L619.777778,92.1426554 L619.777778,82.9237288 L659.436508,82.9237288 L659.436508,53 L586,53 L586,160 L662,160 Z M747.532962,160 L763.121634,99.5480226 L763.727019,99.5480226 L778.861653,160 L815.184773,160 L845,53 L808.071495,53 L796.417827,113.149718 L795.812442,113.149718 L782.342618,53 L744.657382,53 L732.246982,113.149718 L731.641597,113.149718 L720.139276,53 L682,53 L711.209842,160 L747.532962,160 Z M906.018062,163 C911.456486,163 916.794198,162.219474 922.031199,160.658422 C927.268199,159.097371 931.976464,156.730615 936.155993,153.558155 C940.335523,150.385695 943.70936,146.407531 946.277504,141.623663 C948.845649,136.839795 950.129721,131.225045 950.129721,124.779412 C950.129721,119.240196 948.971538,114.607398 946.655172,110.881016 C944.338807,107.154635 941.392994,104.007353 937.817734,101.439171 C934.242474,98.8709893 930.339901,96.7811943 926.110016,95.1697861 C921.880131,93.5583779 917.851669,92.1483957 914.024631,90.9398396 C910.298303,89.7312834 907.604269,88.7241533 905.942529,87.9184492 C904.280788,87.1127451 903.449918,85.9041889 903.449918,84.2927807 C903.449918,82.5806595 904.25561,81.3469251 905.866995,80.5915775 C907.47838,79.8362299 909.593322,79.4585561 912.211823,79.4585561 C915.031746,79.4585561 918.20416,80.239082 921.729064,81.8001337 C925.253968,83.3611854 928.224959,85.6524064 930.642036,88.6737968 L930.642036,88.6737968 L953,65.8622995 C947.460865,60.7259358 941.040504,56.7981283 933.738916,54.078877 C926.437329,51.3596257 919.261631,50 912.211823,50 C906.974822,50 901.687466,50.6546346 896.349754,51.9639037 C891.012042,53.2731729 886.203065,55.4133244 881.922824,58.3843583 C877.642583,61.3553922 874.142857,65.1573084 871.423645,69.790107 C868.704433,74.4229055 867.344828,80.0628342 867.344828,86.709893 C867.344828,91.4434046 868.100164,95.4971034 869.610837,98.8709893 C871.121511,102.244875 873.16092,105.140374 875.729064,107.557487 C878.297209,109.974599 881.243021,112.014037 884.566502,113.675802 C887.889984,115.337567 891.364532,116.772727 894.990148,117.981283 C898.716475,119.18984 901.813355,120.247326 904.280788,121.153743 C906.748221,122.06016 908.686918,122.891043 910.09688,123.64639 C911.506842,124.401738 912.488779,125.131907 913.042693,125.836898 C913.596606,126.541889 913.873563,127.39795 913.873563,128.40508 C913.873563,130.318627 913.042693,131.627897 911.380952,132.332888 C909.719212,133.037879 907.881226,133.390374 905.866995,133.390374 C901.435687,133.390374 897.130268,132.332888 892.950739,130.217914 C888.77121,128.102941 885.422551,125.685829 882.904762,122.966578 L882.904762,122.966578 L861,146.835561 C863.719212,149.252674 866.790914,151.443182 870.215107,153.407086 C873.639299,155.370989 877.290093,157.083111 881.167488,158.543449 C885.044882,160.003788 889.073344,161.111631 893.252874,161.866979 C897.432403,162.622326 901.687466,163 906.018062,163 Z M1015.90909,160 L1015.90909,125.542373 L1026.06061,125.542373 C1031.61616,125.542373 1037.04545,124.887476 1042.34848,123.577684 C1047.65152,122.267891 1052.34848,120.152072 1056.43939,117.230226 C1060.5303,114.30838 1063.81313,110.530132 1066.28788,105.89548 C1068.76263,101.260829 1070,95.6186441 1070,88.9689266 C1070,82.0169492 1068.73737,76.248823 1066.21212,71.664548 C1063.68687,67.0802731 1060.35354,63.4027778 1056.21212,60.6320621 C1052.07071,57.8613465 1047.37374,55.8966573 1042.12121,54.7379944 C1036.86869,53.5793315 1031.51515,53 1026.06061,53 L1026.06061,53 L980,53 L980,160 L1015.90909,160 Z M1023.37705,98 L1016,98 L1016,81 L1023.37705,81 C1024.65574,81 1025.93443,81.124269 1027.21311,81.372807 C1028.4918,81.621345 1029.64754,82.0438596 1030.68033,82.6403509 C1031.71311,83.2368421 1032.52459,84.0570175 1033.11475,85.1008772 C1033.70492,86.1447368 1034,87.5116959 1034,89.2017544 C1034,92.3830409 1032.89344,94.6447368 1030.68033,95.9868421 C1028.46721,97.3289474 1026.03279,98 1023.37705,98 L1023.37705,98 Z M1115.0495,160 L1120.33416,144.282486 L1154.30693,144.282486 L1159.89356,160 L1199,160 L1157.32673,53 L1119.12624,53 L1077,160 L1115.0495,160 Z M1147,117 L1130,117 L1138.57391,91 L1147,117 Z M1258.90909,160 L1258.90909,125.542373 L1269.06061,125.542373 C1274.61616,125.542373 1280.04545,124.887476 1285.34848,123.577684 C1290.65152,122.267891 1295.34848,120.152072 1299.43939,117.230226 C1303.5303,114.30838 1306.81313,110.530132 1309.28788,105.89548 C1311.76263,101.260829 1313,95.6186441 1313,88.9689266 C1313,82.0169492 1311.73737,76.248823 1309.21212,71.664548 C1306.68687,67.0802731 1303.35354,63.4027778 1299.21212,60.6320621 C1295.07071,57.8613465 1290.37374,55.8966573 1285.12121,54.7379944 C1279.86869,53.5793315 1274.51515,53 1269.06061,53 L1269.06061,53 L1223,53 L1223,160 L1258.90909,160 Z M1266.37705,98 L1259,98 L1259,81 L1266.37705,81 C1267.65574,81 1268.93443,81.124269 1270.21311,81.372807 C1271.4918,81.621345 1272.64754,82.0438596 1273.68033,82.6403509 C1274.71311,83.2368421 1275.52459,84.0570175 1276.11475,85.1008772 C1276.70492,86.1447368 1277,87.5116959 1277,89.2017544 C1277,92.3830409 1275.89344,94.6447368 1273.68033,95.9868421 C1271.46721,97.3289474 1269.03279,98 1266.37705,98 L1266.37705,98 Z M1418,160 L1418,130.076271 L1375.77778,130.076271 L1375.77778,120.101695 L1413.02381,120.101695 L1413.02381,92.1426554 L1375.77778,92.1426554 L1375.77778,82.9237288 L1415.43651,82.9237288 L1415.43651,53 L1342,53 L1342,160 L1418,160 Z M1482.83771,160 L1482.83771,121.764124 L1483.89799,121.764124 L1504.49768,160 L1546,160 L1518.7357,116.625706 C1524.79444,113.905367 1529.43946,110.051554 1532.67079,105.064266 C1535.90211,100.076977 1537.51777,94.3088512 1537.51777,87.759887 C1537.51777,81.0094162 1536.25554,75.39242 1533.73107,70.9088983 C1531.20659,66.4253766 1527.89954,62.8486347 1523.80989,60.1786723 C1519.72025,57.50871 1515.07522,55.644774 1509.87481,54.5868644 C1504.67439,53.5289548 1499.44874,53 1494.19784,53 L1494.19784,53 L1448,53 L1448,160 L1482.83771,160 Z M1490.23077,98 L1483,98 L1483,81 L1491.76923,81 C1492.89744,81 1494.12821,81.0745614 1495.46154,81.2236842 C1496.79487,81.372807 1498.02564,81.7207602 1499.15385,82.2675439 C1500.28205,82.8143275 1501.20513,83.6345029 1501.92308,84.7280702 C1502.64103,85.8216374 1503,87.3128655 1503,89.2017544 C1503,91.0906433 1502.5641,92.6067251 1501.69231,93.75 C1500.82051,94.8932749 1499.74359,95.7880117 1498.46154,96.4342105 C1497.17949,97.0804094 1495.79487,97.502924 1494.30769,97.7017544 C1492.82051,97.9005848 1491.46154,98 1490.23077,98 L1490.23077,98 Z" id="NEWSPAPER"></path>
        </g>
    </g>
</svg>